<svg width="22" height="23" viewBox="0 0 22 23" fill="none" xmlns="http://www.w3.org/2000/svg">
<path d="M20.2632 14.7685C18.9061 14.7685 17.5769 14.5566 16.317 14.1409C15.7022 13.929 15.004 14.0922 14.5999 14.5045L12.1023 16.3907C9.23653 14.8611 7.40243 13.0282 5.89371 10.1832L7.72895 7.74468C8.19095 7.28268 8.35655 6.60645 8.15855 5.9731C7.73937 4.70521 7.52634 3.37478 7.52634 2.02005C7.52634 1.06245 6.74709 0.283203 5.7895 0.283203H1.73684C0.779246 0.283203 0 1.06245 0 2.02005C0 13.1926 9.09064 22.2832 20.2632 22.2832C21.2208 22.2832 22 21.504 22 20.5464V16.5053C22 15.5477 21.2208 14.7685 20.2632 14.7685Z" fill="#23B86D"/>
</svg>
