<svg width="22" height="28" viewBox="0 0 22 28" fill="none" xmlns="http://www.w3.org/2000/svg">
<path fill-rule="evenodd" clip-rule="evenodd" d="M12.0281 26.9496C14.7613 24.998 22 19.1627 22 12.0996C22 5.5736 17.0751 0.283203 11 0.283203C4.92487 0.283203 0 5.5736 0 12.0996C0 19.1627 7.23871 24.998 9.97188 26.9496C10.5917 27.3921 11.4083 27.3921 12.0281 26.9496ZM11.4955 16.8944C13.6877 16.8944 15.4649 14.9854 15.4649 12.6304C15.4649 10.2755 13.6877 8.36644 11.4955 8.36644C9.30328 8.36644 7.52612 10.2755 7.52612 12.6304C7.52612 14.9854 9.30328 16.8944 11.4955 16.8944Z" fill="#23B86D"/>
</svg>
