<svg width="15" height="15" viewBox="0 0 15 15" fill="none" xmlns="http://www.w3.org/2000/svg">
<g clip-path="url(#clip0_507_1483)">
<path d="M14.5681 9.09138C15.6544 4.21013 11.3781 -0.224249 6.35625 0.627001C3.63 -1.06487 0 0.847001 0 4.09075C0 4.84513 0.208125 5.55138 0.57 6.16013C-0.439375 11.0526 3.87188 15.4233 8.88938 14.5139C12.4363 16.3895 16.3556 12.6489 14.5681 9.09138ZM9.79438 12.0351C8.47688 12.577 6.30875 12.5801 4.99688 11.8933C3.12625 10.8958 2.79375 8.65013 4.4075 8.65013C5.62375 8.65013 5.23875 10.0683 6.46688 10.6464C7.03063 10.907 8.2425 10.9339 8.94688 10.4589C9.6425 9.99325 9.57875 9.26075 9.20063 8.91075C8.19875 7.98575 5.33188 8.35325 4.02125 6.73388C3.45188 6.03138 3.34438 4.792 4.04438 3.89325C5.26438 2.32325 8.84438 2.22763 10.3838 3.41325C11.805 4.51325 11.4213 5.97325 10.2744 5.97325C8.895 5.97325 9.62 4.16825 7.39313 4.16825C5.77875 4.16825 5.14375 5.31638 6.28063 5.87513C7.82188 6.64075 11.7494 6.38513 11.7494 9.377C11.7463 10.622 10.9831 11.5501 9.79438 12.0351Z" fill="#23B86D"/>
</g>
<defs>
<clipPath id="clip0_507_1483">
<rect width="15" height="15" fill="white"/>
</clipPath>
</defs>
</svg>
