<svg width="15" height="15" viewBox="0 0 15 15" fill="none" xmlns="http://www.w3.org/2000/svg">
<g clip-path="url(#clip0_507_1487)">
<path d="M14.6683 3.70563L14.6871 3.82813C14.5058 3.18501 14.0164 2.68876 13.3946 2.50813L13.3814 2.50501C12.2121 2.18751 7.50643 2.18751 7.50643 2.18751C7.50643 2.18751 2.81268 2.18126 1.63143 2.50501C0.997684 2.68876 0.507684 3.18501 0.329559 3.81501L0.326434 3.82813C-0.110441 6.11001 -0.113566 8.85188 0.345809 11.295L0.326434 11.1713C0.507684 11.8144 0.997059 12.3106 1.61893 12.4913L1.63206 12.4944C2.80018 12.8125 7.50706 12.8125 7.50706 12.8125C7.50706 12.8125 12.2002 12.8125 13.3821 12.4944C14.0164 12.3106 14.5064 11.8144 14.6846 11.1844L14.6877 11.1713C14.8864 10.11 15.0002 8.88876 15.0002 7.64126C15.0002 7.59563 15.0002 7.54938 14.9996 7.50313C15.0002 7.46063 15.0002 7.41001 15.0002 7.35938C15.0002 6.11126 14.8864 4.89001 14.6683 3.70563ZM6.00518 9.78188V5.22376L9.92143 7.50626L6.00518 9.78188Z" fill="#23B86D"/>
</g>
<defs>
<clipPath id="clip0_507_1487">
<rect width="15" height="15" fill="white"/>
</clipPath>
</defs>
</svg>
